#!OML:ASF C:\Vicon Data\Big\jianyuan-13\jianyuan\Session 1\Capture.male.ASF
:FULLY-SPECIFIED
:DEGREES
98
root -8.788224 17.615822 -18.710542 10.506375 -9.861911 0.524907
lowerback -9.872137 1.850491 -2.914250 
upperback 2.988367 2.921377 -0.696836 
thorax 8.618591 1.282509 1.397262 
lowerneck -4.992009 -1.839429 2.199729 
upperneck 22.781931 -2.419862 -1.860436 
head 7.771543 -1.128090 -1.179401 
rclavicle 0.000000 0.000000 
rhumerus -25.748856 -1.755617 -92.080912 
rradius 43.007665 
rwrist 22.806850 
rhand -15.934364 -16.255978 
rfingers 0.000000 
rthumb 10.263436 -45.985566 
lclavicle 0.000000 0.000000 
lhumerus -60.872511 45.635374 39.405171 
lradius 21.554672 
lwrist -75.367952 
lhand -23.198698 2.056989 
lfingers 0.000000 
lthumb 3.251198 32.011922 
rfemur -11.533152 2.292859 27.663787 
rtibia 24.184896 
rfoot -23.343484 -6.565371 
rtoes -22.203730 
lfemur -33.535980 -6.288193 -16.505662 
ltibia 14.675832 
lfoot -7.408336 3.712518 
ltoes -41.574739 
99
root -8.802664 17.604454 -18.622260 10.603387 -9.908728 0.396594
lowerback -10.009119 1.892282 -2.856178 
upperback 2.946831 2.967352 -0.621373 
thorax 8.649884 1.305142 1.457221 
lowerneck -4.959162 -1.830423 2.055622 
upperneck 22.787695 -2.392332 -1.836043 
head 7.770343 -1.124413 -1.144461 
rclavicle 0.000000 0.000000 
rhumerus -25.757242 -1.328963 -92.114036 
rradius 43.418804 
rwrist 22.243048 
rhand -15.901314 -16.274869 
rfingers 0.000000 
rthumb 10.295380 -46.002894 
lclavicle 0.000000 0.000000 
lhumerus -62.148732 45.610647 38.017565 
lradius 21.527019 
lwrist -75.770059 
lhand -23.119634 1.933667 
lfingers 0.000000 
lthumb 3.327605 31.887471 
rfemur -11.110407 2.507614 27.800891 
rtibia 23.881372 
rfoot -23.471811 -6.735530 
rtoes -22.371804 
lfemur -33.002065 -6.090934 -16.675659 
ltibia 12.471496 
lfoot -7.070780 4.096227 
ltoes -42.520307 
100
root -8.820036 17.591613 -18.530893 10.601057 -9.858870 0.233864
lowerback -10.059358 1.924403 -2.697217 
upperback 2.939603 2.988192 -0.591855 
thorax 8.676371 1.322369 1.405005 
lowerneck -4.990672 -1.856946 2.070134 
upperneck 22.835513 -2.436126 -1.813290 
head 7.791256 -1.141533 -1.143890 
rclavicle 0.000000 0.000000 
rhumerus -25.708373 -1.182900 -92.225291 
rradius 43.710946 
rwrist 22.211448 
rhand -15.770253 -16.098668 
rfingers 0.000000 
rthumb 10.421790 -45.820333 
lclavicle 0.000000 0.000000 
lhumerus -62.922100 45.254239 37.168446 
lradius 21.502032 
lwrist -75.536495 
lhand -23.027668 1.949266 
lfingers 0.000000 
lthumb 3.416345 31.901629 
rfemur -10.536682 2.742754 28.024326 
rtibia 23.508232 
rfoot -23.544489 -7.071034 
rtoes -22.695462 
lfemur -32.356540 -6.111557 -16.694868 
ltibia 10.288520 
lfoot -6.812491 4.636681 
ltoes -43.043422 
101
root -8.829985 17.580219 -18.437826 10.615687 -9.757066 0.200885
lowerback -10.131057 1.950091 -2.612656 
upperback 2.943986 3.014909 -0.604661 
thorax 8.726644 1.339147 1.351785 
lowerneck -5.057512 -1.922621 2.069930 
upperneck 22.857966 -2.524312 -1.829318 
head 7.808705 -1.184507 -1.157257 
rclavicle 0.000000 0.000000 
rhumerus -25.628786 -0.946467 -92.378875 
rradius 44.061066 
rwrist 21.606761 
rhand -15.959510 -16.242840 
rfingers 0.000000 
rthumb 10.239201 -45.973582 
lclavicle 0.000000 0.000000 
lhumerus -63.824202 45.108350 36.036370 
lradius 21.414609 
lwrist -75.852061 
lhand -22.956958 1.981231 
lfingers 0.000000 
lthumb 3.484637 31.932470 
rfemur -10.037029 2.486276 28.066260 
rtibia 23.164304 
rfoot -23.563514 -6.951415 
rtoes -22.840259 
lfemur -31.627390 -6.234334 -16.883300 
ltibia 7.932050 
lfoot -6.450746 5.236044 
ltoes -43.522841 
102
root -8.841997 17.568723 -18.343368 10.599602 -9.713184 0.220622
lowerback -10.174850 1.966756 -2.598304 
upperback 2.919800 3.038696 -0.635110 
thorax 8.727429 1.352482 1.316826 
lowerneck -5.045071 -1.935837 2.080745 
upperneck 22.873305 -2.553994 -1.780053 
head 7.811681 -1.192974 -1.145218 
rclavicle 0.000000 0.000000 
rhumerus -25.650294 -0.783053 -92.485746 
rradius 44.447504 
rwrist 21.425073 
rhand -15.920717 -16.357949 
rfingers 0.000000 
rthumb 10.276691 -46.086878 
lclavicle 0.000000 0.000000 
lhumerus -64.698059 44.860185 34.999022 
lradius 21.368920 
lwrist -75.706486 
lhand -22.707560 1.845051 
lfingers 0.000000 
lthumb 3.725510 31.792214 
rfemur -9.543833 2.333062 28.059130 
rtibia 22.914162 
rfoot -23.593559 -6.904759 
rtoes -23.006307 
lfemur -30.485741 -6.299196 -17.134389 
ltibia 4.930661 
lfoot -5.815407 5.985584 
ltoes -43.843157 
103
root -8.854635 17.554900 -18.249890 10.605233 -9.622370 0.104316
lowerback -10.224633 1.967077 -2.491708 
upperback 2.917573 3.020310 -0.563991 
thorax 8.755902 1.346558 1.331545 
lowerneck -5.079584 -1.976352 1.986163 
upperneck 22.862626 -2.585329 -1.838487 
head 7.813893 -1.220963 -1.151267 
rclavicle 0.000000 0.000000 
rhumerus -25.543815 -0.759539 -92.544450 
rradius 44.673711 
rwrist 21.427168 
rhand -15.913172 -16.409488 
rfingers 0.000000 
rthumb 10.283943 -46.138037 
lclavicle 0.000000 0.000000 
lhumerus -65.851473 44.844905 33.699526 
lradius 21.353262 
lwrist -76.126103 
lhand -22.534931 1.817431 
lfingers 0.000000 
lthumb 3.892172 31.761605 
rfemur -9.108355 2.278317 28.208073 
rtibia 22.765091 
rfoot -23.695355 -6.936484 
rtoes -23.067154 
lfemur -28.316991 -6.377374 -17.243451 
ltibia 0.000000 
lfoot -4.271989 7.116574 
ltoes -43.991202 
104
root -8.865750 17.545496 -18.158703 10.618613 -9.592544 0.127297
lowerback -10.282889 2.022603 -2.494104 
upperback 2.892052 3.100069 -0.610054 
thorax 8.761653 1.386468 1.299648 
lowerneck -5.040909 -2.012907 2.019549 
upperneck 22.813632 -2.654031 -1.766977 
head 7.790007 -1.244302 -1.137519 
rclavicle 0.000000 0.000000 
rhumerus -25.559410 -0.916692 -92.697218 
rradius 44.983031 
rwrist 21.424928 
rhand -15.979773 -16.397514 
rfingers 0.000000 
rthumb 10.219653 -46.129259 
lclavicle 0.000000 0.000000 
lhumerus -66.601140 44.613689 32.709998 
lradius 21.320738 
lwrist -76.430541 
lhand -22.443071 1.772187 
lfingers 0.000000 
lthumb 3.980900 31.714725 
rfemur -8.774093 2.221895 28.172551 
rtibia 22.732014 
rfoot -23.835078 -6.826425 
rtoes -22.730823 
lfemur -28.609658 -6.422420 -17.476388 
ltibia 0.000000 
lfoot -4.776506 7.194350 
ltoes -44.628037 
105
root -8.879190 17.536738 -18.066393 10.600723 -9.524248 0.105948
lowerback -10.295264 2.042975 -2.516202 
upperback 2.860068 3.127567 -0.582246 
thorax 8.730325 1.398571 1.346012 
lowerneck -5.035893 -2.051430 1.992555 
upperneck 22.837188 -2.709171 -1.738609 
head 7.796733 -1.269705 -1.128181 
rclavicle 0.000000 0.000000 
rhumerus -25.565014 -0.602818 -92.647333 
rradius 45.239121 
rwrist 21.003281 
rhand -16.159024 -16.392183 
rfingers 0.000000 
rthumb 10.046784 -46.132369 
lclavicle 0.000000 0.000000 
lhumerus -67.676113 44.540921 31.410695 
lradius 21.266866 
lwrist -77.052326 
lhand -22.371121 1.855286 
lfingers 0.000000 
lthumb 4.050378 31.796562 
rfemur -8.320712 2.563571 28.200789 
rtibia 22.709398 
rfoot -24.258978 -6.930016 
rtoes -21.597958 
lfemur -28.791378 -6.486513 -17.639559 
ltibia 0.000000 
lfoot -5.317233 7.307495 
ltoes -44.981215 
106
root -8.890075 17.525198 -17.974605 10.607448 -9.475032 0.001923
lowerback -10.349588 2.108845 -2.350771 
upperback 2.872625 3.198655 -0.624035 
thorax 8.784131 1.442043 1.224154 
lowerneck -5.130339 -2.100683 2.036813 
upperneck 22.835185 -2.809515 -1.623625 
head 7.812722 -1.303126 -1.107070 
rclavicle 0.000000 0.000000 
rhumerus -25.422799 -0.504980 -92.779296 
rradius 45.499354 
rwrist 20.773455 
rhand -16.108757 -16.604666 
rfingers 0.000000 
rthumb 10.095222 -46.342525 
lclavicle 0.000000 0.000000 
lhumerus -68.280943 44.358617 30.521807 
lradius 21.234519 
lwrist -77.344699 
lhand -22.390293 1.898496 
lfingers 0.000000 
lthumb 4.031859 31.840100 
rfemur -7.931266 2.607155 28.337159 
rtibia 22.654613 
rfoot -24.446017 -7.069795 
rtoes -21.848004 
lfemur -28.891712 -6.502473 -17.699370 
ltibia 0.000000 
lfoot -5.545934 7.252446 
ltoes -44.650628 
107
root -8.900342 17.511018 -17.881331 10.584323 -9.425500 0.030019
lowerback -10.367426 2.130058 -2.349107 
upperback 2.841631 3.229316 -0.656415 
thorax 8.761851 1.458571 1.194199 
lowerneck -5.088593 -2.145675 2.019637 
upperneck 22.830225 -2.872905 -1.600788 
head 7.802957 -1.332416 -1.100940 
rclavicle 0.000000 0.000000 
rhumerus -25.414149 -0.530963 -92.828352 
rradius 45.696768 
rwrist 20.871554 
rhand -16.014316 -16.496600 
rfingers 0.000000 
rthumb 10.186343 -46.229992 
lclavicle 0.000000 0.000000 
lhumerus -69.170550 44.221147 29.334875 
lradius 21.143794 
lwrist -77.951550 
lhand -22.329117 1.855725 
lfingers 0.000000 
lthumb 4.090963 31.796178 
rfemur -7.551673 2.436673 28.332315 
rtibia 22.591768 
rfoot -24.493297 -7.145726 
rtoes -22.729829 
lfemur -28.913525 -6.552431 -17.906404 
ltibia 0.000000 
lfoot -5.806613 7.239725 
ltoes -44.632124 
108
root -8.913664 17.494310 -17.786635 10.652147 -9.470765 0.017572
lowerback -10.480652 2.193526 -2.421893 
upperback 2.804881 3.324788 -0.631417 
thorax 8.779055 1.499847 1.282328 
lowerneck -5.159096 -2.194593 2.019604 
upperneck 22.883102 -2.942731 -1.596008 
head 7.832096 -1.364352 -1.106655 
rclavicle 0.000000 0.000000 
rhumerus -25.403353 -0.377958 -92.791335 
rradius 45.956964 
rwrist 20.579494 
rhand -16.044156 -16.470092 
rfingers 0.000000 
rthumb 10.157547 -46.204890 
lclavicle 0.000000 0.000000 
lhumerus -69.909783 44.035511 28.479134 
lradius 21.185114 
lwrist -78.411361 
lhand -22.200769 1.908536 
lfingers 0.000000 
lthumb 4.214903 31.846585 
rfemur -7.252850 2.426453 28.376166 
rtibia 22.515069 
rfoot -24.427626 -7.354946 
rtoes -23.876036 
lfemur -28.962343 -6.487200 -18.066793 
ltibia 0.000000 
lfoot -5.850961 7.312999 
ltoes -44.683828 
